<svg width="196" height="18" viewBox="0 0 196 18" fill="none" xmlns="http://www.w3.org/2000/svg">
<path d="M0.718717 17V1.16H11.8307V2.96H2.63872V8.072H9.79072V9.872H2.63872V15.2H12.1907V17H0.718717ZM32.6314 1.16L26.6314 17H24.4474L18.4234 1.16H20.4874L24.5194 12.104L25.5274 15.248L26.5354 12.128L30.5674 1.16H32.6314ZM40.3459 6.92C40.8099 6.92 41.1859 7.064 41.4739 7.352C41.7619 7.64 41.9059 8.016 41.9059 8.48C41.9059 8.944 41.7619 9.32 41.4739 9.608C41.1859 9.896 40.8099 10.04 40.3459 10.04C39.8819 10.04 39.5059 9.896 39.2179 9.608C38.9299 9.32 38.7859 8.944 38.7859 8.48C38.7859 8.016 38.9299 7.64 39.2179 7.352C39.5059 7.064 39.8819 6.92 40.3459 6.92ZM56.344 0.92C57.848 0.92 59.144 1.256 60.232 1.928C61.336 2.584 62.184 3.52 62.776 4.736C63.384 5.952 63.688 7.4 63.688 9.08C63.688 10.76 63.384 12.208 62.776 13.424C62.184 14.64 61.336 15.584 60.232 16.256C59.144 16.912 57.848 17.24 56.344 17.24C54.84 17.24 53.536 16.912 52.432 16.256C51.344 15.584 50.496 14.64 49.888 13.424C49.296 12.208 49 10.76 49 9.08C49 7.4 49.296 5.952 49.888 4.736C50.496 3.52 51.344 2.584 52.432 1.928C53.536 1.256 54.84 0.92 56.344 0.92ZM56.344 2.72C55.256 2.72 54.312 2.976 53.512 3.488C52.712 3.984 52.096 4.712 51.664 5.672C51.232 6.616 51.016 7.752 51.016 9.08C51.016 10.408 51.232 11.552 51.664 12.512C52.096 13.456 52.712 14.184 53.512 14.696C54.312 15.192 55.256 15.44 56.344 15.44C57.448 15.44 58.392 15.192 59.176 14.696C59.976 14.184 60.592 13.456 61.024 12.512C61.456 11.552 61.672 10.408 61.672 9.08C61.672 7.752 61.456 6.616 61.024 5.672C60.592 4.712 59.976 3.984 59.176 3.488C58.392 2.976 57.448 2.72 56.344 2.72ZM72.3531 6.92C72.8171 6.92 73.1931 7.064 73.4811 7.352C73.7691 7.64 73.9131 8.016 73.9131 8.48C73.9131 8.944 73.7691 9.32 73.4811 9.608C73.1931 9.896 72.8171 10.04 72.3531 10.04C71.8891 10.04 71.5131 9.896 71.2251 9.608C70.9371 9.32 70.7931 8.944 70.7931 8.48C70.7931 8.016 70.9371 7.64 71.2251 7.352C71.5131 7.064 71.8891 6.92 72.3531 6.92ZM83.8872 15.2H92.9592V17H81.9672V1.16H83.8872V15.2ZM112.376 1.16V11.096C112.376 13.128 111.84 14.664 110.768 15.704C109.696 16.728 108.16 17.24 106.16 17.24C104.176 17.24 102.64 16.728 101.552 15.704C100.48 14.664 99.9439 13.128 99.9439 11.096V1.16H101.864V10.616C101.864 12.264 102.208 13.48 102.896 14.264C103.6 15.048 104.688 15.44 106.16 15.44C107.632 15.44 108.712 15.048 109.4 14.264C110.104 13.48 110.456 12.264 110.456 10.616V1.16H112.376ZM121.688 6.92C122.152 6.92 122.528 7.064 122.816 7.352C123.104 7.64 123.248 8.016 123.248 8.48C123.248 8.944 123.104 9.32 122.816 9.608C122.528 9.896 122.152 10.04 121.688 10.04C121.224 10.04 120.848 9.896 120.56 9.608C120.272 9.32 120.128 8.944 120.128 8.48C120.128 8.016 120.272 7.64 120.56 7.352C120.848 7.064 121.224 6.92 121.688 6.92ZM141.477 1.16V2.96H135.957V17H134.037V2.96H128.517V1.16H141.477ZM151.066 1.16V17H149.146V1.16H151.066ZM166.951 0.92C168.455 0.92 169.751 1.256 170.839 1.928C171.943 2.584 172.791 3.52 173.383 4.736C173.991 5.952 174.295 7.4 174.295 9.08C174.295 10.76 173.991 12.208 173.383 13.424C172.791 14.64 171.943 15.584 170.839 16.256C169.751 16.912 168.455 17.24 166.951 17.24C165.447 17.24 164.143 16.912 163.039 16.256C161.951 15.584 161.103 14.64 160.495 13.424C159.903 12.208 159.607 10.76 159.607 9.08C159.607 7.4 159.903 5.952 160.495 4.736C161.103 3.52 161.951 2.584 163.039 1.928C164.143 1.256 165.447 0.92 166.951 0.92ZM166.951 2.72C165.863 2.72 164.919 2.976 164.119 3.488C163.319 3.984 162.703 4.712 162.271 5.672C161.839 6.616 161.623 7.752 161.623 9.08C161.623 10.408 161.839 11.552 162.271 12.512C162.703 13.456 163.319 14.184 164.119 14.696C164.919 15.192 165.863 15.44 166.951 15.44C168.055 15.44 168.999 15.192 169.783 14.696C170.583 14.184 171.199 13.456 171.631 12.512C172.063 11.552 172.279 10.408 172.279 9.08C172.279 7.752 172.063 6.616 171.631 5.672C171.199 4.712 170.583 3.984 169.783 3.488C168.999 2.976 168.055 2.72 166.951 2.72ZM195.272 1.16V17H192.896L186.272 6.392L184.592 3.416H184.568L184.664 5.816V17H182.84V1.16H185.216L191.816 11.72L193.52 14.768H193.544L193.448 12.344V1.16H195.272Z" fill="black"/>
</svg>
