<svg width="58" height="58" viewBox="0 0 58 58" fill="none" xmlns="http://www.w3.org/2000/svg">
<circle cx="29" cy="29" r="28.5" stroke="#C2A578"/>
<path d="M39.2 20.8H31.7333V20.2667C31.7302 17.6169 29.5831 15.4698 26.9333 15.4667H16.8C14.1503 15.4698 12.0031 17.6169 12 20.2667V26.6667C12.0031 29.3164 14.1503 31.4636 16.8 31.4667H17.3333V35.7333C17.3333 35.949 17.4633 36.1435 17.6625 36.2261C17.8617 36.3086 18.0911 36.2628 18.2438 36.1104L22.8875 31.4667H24.2667V32C24.2698 34.6497 26.4169 36.7969 29.0667 36.8H32.0458L37.7563 42.5104C37.9089 42.6628 38.1383 42.7086 38.3375 42.6261C38.5367 42.5435 38.6667 42.349 38.6667 42.1333V36.8H39.2C41.8497 36.7969 43.9969 34.6497 44 32V25.6C43.9969 22.9503 41.8497 20.8031 39.2 20.8ZM22.6667 30.4C22.5253 30.4 22.3896 30.4563 22.2896 30.5563L18.4 34.4458V30.9333C18.4 30.6388 18.1612 30.4 17.8667 30.4H16.8C14.7391 30.3977 13.069 28.7276 13.0667 26.6667V20.2667C13.069 18.2057 14.7391 16.5357 16.8 16.5333H26.9333C28.9943 16.5357 30.6643 18.2057 30.6667 20.2667V20.8H29.0667C26.4169 20.8031 24.2698 22.9503 24.2667 25.6V30.4H22.6667ZM42.9333 32C42.931 34.0609 41.2609 35.731 39.2 35.7333H38.1333C37.8388 35.7333 37.6 35.9721 37.6 36.2667V40.8458L32.6438 35.8896C32.5438 35.7896 32.4081 35.7333 32.2667 35.7333H29.0667C27.0057 35.731 25.3357 34.0609 25.3333 32V25.6C25.3357 23.5391 27.0057 21.869 29.0667 21.8667H39.2C41.2609 21.869 42.931 23.5391 42.9333 25.6V32Z" fill="#C2A578"/>
<path d="M40.2668 25.0667H28.0001C27.7056 25.0667 27.4668 25.3055 27.4668 25.6C27.4668 25.8945 27.7056 26.1333 28.0001 26.1333H40.2668C40.5613 26.1333 40.8001 25.8945 40.8001 25.6C40.8001 25.3055 40.5613 25.0667 40.2668 25.0667Z" fill="#C2A578"/>
<path d="M40.2668 28.2667H28.0001C27.7056 28.2667 27.4668 28.5055 27.4668 28.8001C27.4668 29.0946 27.7056 29.3334 28.0001 29.3334H40.2668C40.5613 29.3334 40.8001 29.0946 40.8001 28.8001C40.8001 28.5055 40.5613 28.2667 40.2668 28.2667Z" fill="#C2A578"/>
<path d="M40.2668 31.4667H28.0001C27.7056 31.4667 27.4668 31.7055 27.4668 32C27.4668 32.2945 27.7056 32.5333 28.0001 32.5333H40.2668C40.5613 32.5333 40.8001 32.2945 40.8001 32C40.8001 31.7055 40.5613 31.4667 40.2668 31.4667Z" fill="#C2A578"/>
<path d="M15.1998 20.7999H26.3998C26.6944 20.7999 26.9332 20.5611 26.9332 20.2666C26.9332 19.9721 26.6944 19.7333 26.3998 19.7333H15.1998C14.9053 19.7333 14.6665 19.9721 14.6665 20.2666C14.6665 20.5611 14.9053 20.7999 15.1998 20.7999Z" fill="#C2A578"/>
<path d="M23.1998 22.9333H15.1998C14.9053 22.9333 14.6665 23.1722 14.6665 23.4667C14.6665 23.7612 14.9053 24 15.1998 24H23.1998C23.4944 24 23.7332 23.7612 23.7332 23.4667C23.7332 23.1722 23.4944 22.9333 23.1998 22.9333Z" fill="#C2A578"/>
<path d="M22.6665 26.1333H15.1998C14.9053 26.1333 14.6665 26.3721 14.6665 26.6666C14.6665 26.9612 14.9053 27.2 15.1998 27.2H22.6665C22.961 27.2 23.1998 26.9612 23.1998 26.6666C23.1998 26.3721 22.961 26.1333 22.6665 26.1333Z" fill="#C2A578"/>
</svg>
