<svg width="58" height="58" viewBox="0 0 58 58" fill="none" xmlns="http://www.w3.org/2000/svg">
<circle cx="29" cy="29" r="28.5" stroke="#C2A578"/>
<path d="M45.0312 26.625V21.2812C45.0315 20.8628 44.9211 20.4518 44.7113 20.0897C44.5015 19.7277 44.1997 19.4276 43.8365 19.2198C43.4733 19.012 43.0616 18.9039 42.6432 18.9065C42.2248 18.9091 41.8145 19.0223 41.4539 19.2345C41.3862 18.6314 41.0901 18.0771 40.6264 17.6854C40.1628 17.2937 39.5668 17.0944 38.9608 17.1284C38.3548 17.1623 37.7848 17.427 37.3679 17.8681C36.9509 18.3091 36.7187 18.8931 36.7188 19.5V26.625H21.2812V19.5C21.2805 18.8936 21.0479 18.3105 20.631 17.8702C20.2141 17.4298 19.6446 17.1656 19.0392 17.1316C18.4338 17.0977 17.8383 17.2966 17.3748 17.6876C16.9114 18.0786 16.615 18.632 16.5465 19.2345C16.1859 19.0222 15.7755 18.9089 15.357 18.9063C14.9386 18.9037 14.5268 19.0117 14.1636 19.2195C13.8003 19.4273 13.4985 19.7275 13.2887 20.0896C13.0788 20.4516 12.9685 20.8628 12.9688 21.2812V26.625C12.3389 26.625 11.7348 26.8752 11.2894 27.3206C10.844 27.766 10.5938 28.3701 10.5938 29C10.5938 29.6299 10.844 30.234 11.2894 30.6794C11.7348 31.1248 12.3389 31.375 12.9688 31.375V36.7187C12.9685 37.1372 13.0788 37.5484 13.2887 37.9104C13.4985 38.2725 13.8003 38.5727 14.1636 38.7805C14.5268 38.9883 14.9386 39.0963 15.357 39.0937C15.7755 39.0911 16.1859 38.9778 16.5465 38.7655C16.615 39.368 16.9114 39.9214 17.3748 40.3124C17.8383 40.7034 18.4338 40.9023 19.0392 40.8684C19.6446 40.8344 20.2141 40.5702 20.631 40.1298C21.0479 39.6895 21.2805 39.1064 21.2812 38.5V31.375H36.7188V38.5C36.7187 39.1069 36.9509 39.6909 37.3679 40.1319C37.7848 40.573 38.3548 40.8377 38.9608 40.8716C39.5668 40.9056 40.1628 40.7063 40.6264 40.3146C41.0901 39.9229 41.3862 39.3686 41.4539 38.7655C41.8145 38.9777 42.2248 39.0909 42.6432 39.0935C43.0616 39.0961 43.4733 38.988 43.8365 38.7802C44.1997 38.5724 44.5015 38.2723 44.7113 37.9103C44.9211 37.5482 45.0315 37.1372 45.0312 36.7187V31.375C45.6611 31.375 46.2652 31.1248 46.7106 30.6794C47.156 30.234 47.4062 29.6299 47.4062 29C47.4062 28.3701 47.156 27.766 46.7106 27.3206C46.2652 26.8752 45.6611 26.625 45.0312 26.625ZM12.9688 30.1875C12.6538 30.1875 12.3518 30.0624 12.1291 29.8397C11.9064 29.617 11.7812 29.3149 11.7812 29C11.7812 28.6851 11.9064 28.383 12.1291 28.1603C12.3518 27.9376 12.6538 27.8125 12.9688 27.8125V30.1875ZM15.3438 37.9062C15.0289 37.9059 14.7271 37.7806 14.5045 37.558C14.2819 37.3354 14.1566 37.0336 14.1562 36.7187V21.2812C14.1562 20.9663 14.2814 20.6643 14.5041 20.4416C14.7268 20.2189 15.0288 20.0937 15.3438 20.0937C15.6587 20.0937 15.9607 20.2189 16.1834 20.4416C16.4061 20.6643 16.5312 20.9663 16.5312 21.2812V36.7187C16.5309 37.0336 16.4056 37.3354 16.183 37.558C15.9604 37.7806 15.6586 37.9059 15.3438 37.9062ZM20.0938 38.5C20.0938 38.8149 19.9686 39.117 19.7459 39.3397C19.5232 39.5624 19.2212 39.6875 18.9062 39.6875C18.5913 39.6875 18.2893 39.5624 18.0666 39.3397C17.8439 39.117 17.7188 38.8149 17.7188 38.5V19.5C17.7188 19.1851 17.8439 18.883 18.0666 18.6603C18.2893 18.4376 18.5913 18.3125 18.9062 18.3125C19.2212 18.3125 19.5232 18.4376 19.7459 18.6603C19.9686 18.883 20.0938 19.1851 20.0938 19.5V38.5ZM21.2812 30.1875V27.8125H36.7188V30.1875H21.2812ZM40.2812 38.5C40.2812 38.8149 40.1561 39.117 39.9334 39.3397C39.7107 39.5624 39.4087 39.6875 39.0938 39.6875C38.7788 39.6875 38.4768 39.5624 38.2541 39.3397C38.0314 39.117 37.9062 38.8149 37.9062 38.5V19.5C37.9062 19.1851 38.0314 18.883 38.2541 18.6603C38.4768 18.4376 38.7788 18.3125 39.0938 18.3125C39.4087 18.3125 39.7107 18.4376 39.9334 18.6603C40.1561 18.883 40.2812 19.1851 40.2812 19.5V38.5ZM43.8438 36.7187C43.8438 37.0337 43.7186 37.3357 43.4959 37.5584C43.2732 37.7811 42.9712 37.9062 42.6562 37.9062C42.3413 37.9062 42.0393 37.7811 41.8166 37.5584C41.5939 37.3357 41.4688 37.0337 41.4688 36.7187V21.2812C41.4688 20.9663 41.5939 20.6643 41.8166 20.4416C42.0393 20.2189 42.3413 20.0937 42.6562 20.0937C42.9712 20.0937 43.2732 20.2189 43.4959 20.4416C43.7186 20.6643 43.8438 20.9663 43.8438 21.2812V36.7187ZM45.0312 30.1875V27.8125C45.3462 27.8125 45.6482 27.9376 45.8709 28.1603C46.0936 28.383 46.2188 28.6851 46.2188 29C46.2188 29.3149 46.0936 29.617 45.8709 29.8397C45.6482 30.0624 45.3462 30.1875 45.0312 30.1875Z" fill="#C2A578"/>
</svg>
