<svg width="213" height="20" viewBox="0 0 213 20" fill="none" xmlns="http://www.w3.org/2000/svg">
<g clip-path="url(#clip0_2002_1606)">
<path d="M10.0974 15.783H4.58813L3.70159 17.8859H0L7.33986 2.00586L14.6855 17.8859H10.9839L10.0974 15.783ZM8.88268 12.9087L7.33986 9.23443L5.79705 12.9087H8.88268Z" fill="white"/>
<path d="M18.4849 9.94837C18.4849 5.54837 22.0713 2.01123 26.5386 2.01123C28.7376 2.01123 30.7583 2.89123 32.3586 4.53694L30.0272 6.85123C29.0831 5.8398 27.9087 5.30266 26.5386 5.30266C23.8789 5.30266 21.8008 7.34837 21.8008 9.94837C21.8008 12.5484 23.8847 14.5941 26.5213 14.5941C27.4827 14.5941 28.3692 14.3255 29.1406 13.8112V11.5712H26.1356V8.3198H32.2435V15.6627C30.5856 17.0798 28.6801 17.8798 26.5616 17.8798C22.0713 17.8855 18.4849 14.3427 18.4849 9.94837Z" fill="white"/>
<path d="M47.4933 15.783H41.9841L41.0976 17.8859H37.396L44.7359 2.00586L52.0757 17.8859H48.3741L47.4933 15.783ZM46.2787 12.9087L44.7359 9.23443L43.193 12.9087H46.2787Z" fill="white"/>
<path d="M57.3433 2.2002H60.6189V17.6916H57.3433V2.2002Z" fill="white"/>
<path d="M70.5261 9.42881V17.6917H67.2505V1.81738L76.1735 10.5031V2.20024H79.4491V18.0745L70.5261 9.42881Z" fill="white"/>
<path d="M102.735 0H106.339L98.0144 19.8914H94.4106L102.735 0Z" fill="white"/>
<path d="M121.571 2.2002H131.594V5.45162H124.853V8.3202H130.828V11.5716H124.853V17.6916H121.577V2.2002H121.571Z" fill="white"/>
<path d="M145.49 15.7827H139.981L139.095 17.8855H135.393L142.733 2.01123L150.073 17.8855H146.371L145.49 15.7827ZM144.276 12.9084L142.733 9.23409L141.19 12.9084H144.276Z" fill="white"/>
<path d="M153.665 13.9087L156.693 12.5487C156.831 13.8287 157.712 14.6516 158.869 14.6516C159.928 14.6516 160.66 13.9601 160.66 12.9487C160.66 10.423 154.534 11.1887 154.534 6.29157C154.534 3.783 156.382 2.00586 158.967 2.00586C161.011 2.00586 162.703 3.17157 163.342 4.97157L160.493 6.23443C160.262 5.56586 159.721 5.10872 159.03 5.10872C158.282 5.10872 157.798 5.56586 157.798 6.21729C157.798 8.37729 163.947 7.84586 163.947 12.9887C163.947 15.8401 161.845 17.8859 158.956 17.8859C156.4 17.8859 154.206 16.2573 153.665 13.9087Z" fill="white"/>
<path d="M172.19 5.45162H168.374V2.2002H179.26V5.45162H175.466V17.6916H172.19V5.45162Z" fill="white"/>
<path d="M184.89 2.2002H194.912V5.45162H188.171V8.3202H194.146V11.5716H188.171V14.4402H194.912V17.6916H184.89V2.2002Z" fill="white"/>
<path d="M208.982 17.6916L205.937 12.2402H204.336V17.6916H201.061V2.2002H206.978C209.851 2.2002 212.027 4.34305 212.027 7.21162C212.027 9.25734 210.951 10.9202 209.293 11.7259L212.781 17.6916H208.982ZM204.342 8.98877H206.984C208.061 8.98877 208.757 8.29734 208.757 7.21162C208.757 6.14305 208.067 5.45162 206.984 5.45162H204.342V8.98877Z" fill="white"/>
</g>
<defs>
<clipPath id="clip0_2002_1606">
<rect width="213" height="20" fill="white"/>
</clipPath>
</defs>
</svg>
